<?xml version="1.0" encoding="UTF-8" standalone="no"?>
<!-- Generator: Adobe Illustrator 16.0.0, SVG Export Plug-In . SVG Version: 6.00 Build 0)  -->

<svg
   xmlns:dc="http://purl.org/dc/elements/1.1/"
   xmlns:cc="http://creativecommons.org/ns#"
   xmlns:rdf="http://www.w3.org/1999/02/22-rdf-syntax-ns#"
   xmlns:svg="http://www.w3.org/2000/svg"
   xmlns="http://www.w3.org/2000/svg"
   xmlns:sodipodi="http://sodipodi.sourceforge.net/DTD/sodipodi-0.dtd"
   xmlns:inkscape="http://www.inkscape.org/namespaces/inkscape"
   version="1.1"
   id="Capa_1"
   x="0px"
   y="0px"
   width="46.234px"
   height="46.234px"
   viewBox="0 0 46.234 46.234"
   style="enable-background:new 0 0 46.234 46.234;"
   xml:space="preserve"
   inkscape:version="0.48.5 r10040"
   sodipodi:docname="delete.svg"><metadata
     id="metadata4025"><rdf:RDF><cc:Work
         rdf:about=""><dc:format>image/svg+xml</dc:format><dc:type
           rdf:resource="http://purl.org/dc/dcmitype/StillImage" /></cc:Work></rdf:RDF></metadata><defs
     id="defs4023" /><sodipodi:namedview
     pagecolor="#ffffff"
     bordercolor="#666666"
     borderopacity="1"
     objecttolerance="10"
     gridtolerance="10"
     guidetolerance="10"
     inkscape:pageopacity="0"
     inkscape:pageshadow="2"
     inkscape:window-width="640"
     inkscape:window-height="480"
     id="namedview4021"
     showgrid="false"
     inkscape:zoom="5.1044684"
     inkscape:cx="23.117001"
     inkscape:cy="23.117001"
     inkscape:window-x="65"
     inkscape:window-y="24"
     inkscape:window-maximized="0"
     inkscape:current-layer="Capa_1" /><g
     id="g3983"
     style="fill:#ffffff"><g
       id="g3985"
       style="fill:#ffffff"><path
         d="M8.36,43.021c0,1.773,1.437,3.213,3.211,3.213h23.094c1.775,0,3.209-1.438,3.209-3.213V15.747H8.36V43.021z"
         id="path3987"
         style="fill:#ffffff" /><path
         d="M37.313,3.333h-8.961C27.431,1.325,25.435,0,23.119,0c-2.317,0-4.312,1.325-5.234,3.333H8.924    c-1.774,0-3.241,1.423-3.241,3.198V9.78c0,1.774,1.467,3.229,3.241,3.229h28.389c1.775,0,3.238-1.455,3.238-3.229V6.531    C40.551,4.756,39.088,3.333,37.313,3.333z"
         id="path3989"
         style="fill:#ffffff" /></g></g><g
     id="g3991" /><g
     id="g3993" /><g
     id="g3995" /><g
     id="g3997" /><g
     id="g3999" /><g
     id="g4001" /><g
     id="g4003" /><g
     id="g4005" /><g
     id="g4007" /><g
     id="g4009" /><g
     id="g4011" /><g
     id="g4013" /><g
     id="g4015" /><g
     id="g4017" /><g
     id="g4019" /></svg>