<?xml version="1.0" encoding="UTF-8" standalone="no"?>
<!-- Generator: Adobe Illustrator 16.0.0, SVG Export Plug-In . SVG Version: 6.00 Build 0)  -->

<svg
   xmlns:dc="http://purl.org/dc/elements/1.1/"
   xmlns:cc="http://creativecommons.org/ns#"
   xmlns:rdf="http://www.w3.org/1999/02/22-rdf-syntax-ns#"
   xmlns:svg="http://www.w3.org/2000/svg"
   xmlns="http://www.w3.org/2000/svg"
   xmlns:sodipodi="http://sodipodi.sourceforge.net/DTD/sodipodi-0.dtd"
   xmlns:inkscape="http://www.inkscape.org/namespaces/inkscape"
   version="1.1"
   id="Capa_1"
   x="0px"
   y="0px"
   width="31.979px"
   height="31.979px"
   viewBox="0 0 31.979 31.979"
   style="enable-background:new 0 0 31.979 31.979;"
   xml:space="preserve"
   inkscape:version="0.48.5 r10040"
   sodipodi:docname="list.svg"><metadata
     id="metadata3688"><rdf:RDF><cc:Work
         rdf:about=""><dc:format>image/svg+xml</dc:format><dc:type
           rdf:resource="http://purl.org/dc/dcmitype/StillImage" /></cc:Work></rdf:RDF></metadata><defs
     id="defs3686" /><sodipodi:namedview
     pagecolor="#ffffff"
     bordercolor="#666666"
     borderopacity="1"
     objecttolerance="10"
     gridtolerance="10"
     guidetolerance="10"
     inkscape:pageopacity="0"
     inkscape:pageshadow="2"
     inkscape:window-width="640"
     inkscape:window-height="480"
     id="namedview3684"
     showgrid="false"
     inkscape:zoom="7.379843"
     inkscape:cx="15.9895"
     inkscape:cy="15.9895"
     inkscape:window-x="65"
     inkscape:window-y="24"
     inkscape:window-maximized="0"
     inkscape:current-layer="Capa_1" /><g
     id="g3636"
     style="fill:#ffffff"><g
       id="g3638"
       style="fill:#ffffff"><path
         d="M21.945,6.06V5.359c0-0.796-0.646-1.441-1.441-1.441h-2.365c0.197-0.356,0.309-0.797,0.309-1.245    C18.447,1.2,17.249,0,15.777,0c-1.472,0-2.669,1.2-2.669,2.673c0,0.448,0.112,0.889,0.309,1.245h-1.94    c-0.796,0-1.441,0.645-1.441,1.441V6.06H6.822c-1.207,0-2.185,0.979-2.185,2.186v21.546c0,1.207,0.978,2.187,2.185,2.187h18.334    c1.207,0,2.186-0.979,2.186-2.187V8.246c0-1.207-0.979-2.186-2.186-2.186H21.945z M14.187,2.674c0-0.878,0.713-1.594,1.589-1.594    c0.878,0,1.591,0.716,1.591,1.594c0,0.502-0.234,0.933-0.6,1.245h-1.981C14.421,3.606,14.187,3.176,14.187,2.674z M25.156,28.492    c0,0.742-0.602,1.344-1.344,1.344H8.166c-0.742,0-1.344-0.602-1.344-1.344V9.59c0-0.743,0.602-1.344,1.344-1.344h1.868    c0,0.591,0.479,1.071,1.07,1.071h9.769c0.592,0,1.07-0.479,1.07-1.071h1.869c0.741,0,1.344,0.602,1.344,1.344V28.492    L25.156,28.492z"
         id="path3640"
         style="fill:#ffffff" /><circle
         cx="10.852"
         cy="13.098"
         r="1.899"
         id="circle3642"
         style="fill:#ffffff" /><path
         d="M21.656,12.038H15.18c-0.596,0-1.08,0.475-1.08,1.071c0,0.596,0.483,1.071,1.08,1.071h6.478    c0.596,0,1.078-0.475,1.078-1.071C22.736,12.513,22.253,12.038,21.656,12.038z"
         id="path3644"
         style="fill:#ffffff" /><circle
         cx="10.852"
         cy="18.485"
         r="1.899"
         id="circle3646"
         style="fill:#ffffff" /><path
         d="M21.656,17.391H15.18c-0.596,0-1.08,0.498-1.08,1.094s0.483,1.092,1.08,1.092h6.478c0.596,0,1.078-0.496,1.078-1.092    S22.253,17.391,21.656,17.391z"
         id="path3648"
         style="fill:#ffffff" /><circle
         cx="10.852"
         cy="24.242"
         r="1.898"
         id="circle3650"
         style="fill:#ffffff" /><path
         d="M21.656,23.145H15.18c-0.596,0-1.08,0.498-1.08,1.094s0.483,1.092,1.08,1.092h6.478c0.596,0,1.078-0.497,1.078-1.092    C22.736,23.643,22.253,23.145,21.656,23.145z"
         id="path3652"
         style="fill:#ffffff" /></g></g><g
     id="g3654" /><g
     id="g3656" /><g
     id="g3658" /><g
     id="g3660" /><g
     id="g3662" /><g
     id="g3664" /><g
     id="g3666" /><g
     id="g3668" /><g
     id="g3670" /><g
     id="g3672" /><g
     id="g3674" /><g
     id="g3676" /><g
     id="g3678" /><g
     id="g3680" /><g
     id="g3682" /></svg>