<?xml version="1.0" encoding="UTF-8" standalone="no"?>
<!-- Generator: Adobe Illustrator 16.0.0, SVG Export Plug-In . SVG Version: 6.00 Build 0)  -->

<svg
   xmlns:dc="http://purl.org/dc/elements/1.1/"
   xmlns:cc="http://creativecommons.org/ns#"
   xmlns:rdf="http://www.w3.org/1999/02/22-rdf-syntax-ns#"
   xmlns:svg="http://www.w3.org/2000/svg"
   xmlns="http://www.w3.org/2000/svg"
   xmlns:sodipodi="http://sodipodi.sourceforge.net/DTD/sodipodi-0.dtd"
   xmlns:inkscape="http://www.inkscape.org/namespaces/inkscape"
   version="1.1"
   id="Capa_1"
   x="0px"
   y="0px"
   width="533.333px"
   height="533.333px"
   viewBox="0 0 533.333 533.333"
   style="enable-background:new 0 0 533.333 533.333;"
   xml:space="preserve"
   inkscape:version="0.48.5 r10040"
   sodipodi:docname="plus.svg"><metadata
     id="metadata3537"><rdf:RDF><cc:Work
         rdf:about=""><dc:format>image/svg+xml</dc:format><dc:type
           rdf:resource="http://purl.org/dc/dcmitype/StillImage" /></cc:Work></rdf:RDF></metadata><defs
     id="defs3535" /><sodipodi:namedview
     pagecolor="#ffffff"
     bordercolor="#666666"
     borderopacity="1"
     objecttolerance="10"
     gridtolerance="10"
     guidetolerance="10"
     inkscape:pageopacity="0"
     inkscape:pageshadow="2"
     inkscape:window-width="640"
     inkscape:window-height="480"
     id="namedview3533"
     showgrid="false"
     inkscape:zoom="0.44250027"
     inkscape:cx="266.6665"
     inkscape:cy="266.6665"
     inkscape:window-x="65"
     inkscape:window-y="24"
     inkscape:window-maximized="0"
     inkscape:current-layer="Capa_1" /><g
     id="g3499"
     style="fill:#ffffff"><path
       d="M516.667,200H333.333V16.667C333.333,7.462,325.871,0,316.667,0h-100C207.462,0,200,7.462,200,16.667V200H16.667   C7.462,200,0,207.462,0,216.667v100c0,9.204,7.462,16.666,16.667,16.666H200v183.334c0,9.204,7.462,16.666,16.667,16.666h100   c9.204,0,16.667-7.462,16.667-16.666V333.333h183.333c9.204,0,16.667-7.462,16.667-16.666v-100   C533.333,207.462,525.871,200,516.667,200z"
       id="path3501"
       style="fill:#ffffff" /></g><g
     id="g3503" /><g
     id="g3505" /><g
     id="g3507" /><g
     id="g3509" /><g
     id="g3511" /><g
     id="g3513" /><g
     id="g3515" /><g
     id="g3517" /><g
     id="g3519" /><g
     id="g3521" /><g
     id="g3523" /><g
     id="g3525" /><g
     id="g3527" /><g
     id="g3529" /><g
     id="g3531" /></svg>