<?xml version="1.0" encoding="UTF-8" standalone="no"?>
<!-- Generator: Adobe Illustrator 16.0.0, SVG Export Plug-In . SVG Version: 6.00 Build 0)  -->

<svg
   xmlns:dc="http://purl.org/dc/elements/1.1/"
   xmlns:cc="http://creativecommons.org/ns#"
   xmlns:rdf="http://www.w3.org/1999/02/22-rdf-syntax-ns#"
   xmlns:svg="http://www.w3.org/2000/svg"
   xmlns="http://www.w3.org/2000/svg"
   xmlns:sodipodi="http://sodipodi.sourceforge.net/DTD/sodipodi-0.dtd"
   xmlns:inkscape="http://www.inkscape.org/namespaces/inkscape"
   version="1.1"
   id="Capa_1"
   x="0px"
   y="0px"
   width="896.025px"
   height="896.025px"
   viewBox="0 0 896.025 896.025"
   style="enable-background:new 0 0 896.025 896.025;"
   xml:space="preserve"
   inkscape:version="0.48.5 r10040"
   sodipodi:docname="settings.svg"><metadata
     id="metadata3265"><rdf:RDF><cc:Work
         rdf:about=""><dc:format>image/svg+xml</dc:format><dc:type
           rdf:resource="http://purl.org/dc/dcmitype/StillImage" /></cc:Work></rdf:RDF></metadata><defs
     id="defs3263" /><sodipodi:namedview
     pagecolor="#ffffff"
     bordercolor="#666666"
     borderopacity="1"
     objecttolerance="10"
     gridtolerance="10"
     guidetolerance="10"
     inkscape:pageopacity="0"
     inkscape:pageshadow="2"
     inkscape:window-width="640"
     inkscape:window-height="480"
     id="namedview3261"
     showgrid="false"
     inkscape:zoom="0.2633855"
     inkscape:cx="448.01251"
     inkscape:cy="448.01251"
     inkscape:window-x="65"
     inkscape:window-y="24"
     inkscape:window-maximized="0"
     inkscape:current-layer="Capa_1" /><g
     id="g3228"
     style="fill:#ffffff"><path
       id="settings_1_"
       d="M863.24,382.771l-88.759-14.807c-6.451-26.374-15.857-51.585-28.107-75.099l56.821-70.452   c12.085-14.889,11.536-36.312-1.205-50.682l-35.301-39.729c-12.796-14.355-34.016-17.391-50.202-7.165l-75.906,47.716   c-33.386-23.326-71.204-40.551-112-50.546l-14.85-89.235c-3.116-18.895-19.467-32.759-38.661-32.759h-53.198   c-19.155,0-35.561,13.864-38.608,32.759l-14.931,89.263c-33.729,8.258-65.353,21.588-94.213,39.144l-72.188-51.518   c-15.558-11.115-36.927-9.377-50.504,4.171l-37.583,37.61c-13.548,13.577-15.286,34.946-4.142,50.504l51.638,72.326   c-17.391,28.642-30.584,60.086-38.841,93.515l-89.743,14.985C13.891,385.888,0,402.24,0,421.435v53.156   c0,19.193,13.891,35.547,32.757,38.663l89.743,14.985c6.781,27.508,16.625,53.784,29.709,78.147L95.647,676.44   c-12.044,14.875-11.538,36.312,1.203,50.669l35.274,39.73c12.797,14.382,34.028,17.363,50.216,7.163l77-48.37   c32.581,22.285,69.44,38.664,108.993,48.37l14.931,89.25c3.048,18.896,19.453,32.76,38.608,32.76h53.198   c19.194,0,35.545-13.863,38.661-32.759l14.875-89.25c33.308-8.147,64.531-21.245,93.134-38.5l75.196,53.705   c15.53,11.155,36.915,9.405,50.478-4.186l37.598-37.597c13.532-13.536,15.365-34.893,4.127-50.479l-53.536-75.059   c17.441-28.738,30.704-60.238,38.909-93.816l88.758-14.82c18.921-3.116,32.756-19.469,32.756-38.663v-53.156   C895.998,402.24,882.163,385.888,863.24,382.771z M449.42,616.013c-92.764,0-168-75.25-168-168c0-92.764,75.236-168,168-168   c92.748,0,167.998,75.236,167.998,168C617.418,540.763,542.168,616.013,449.42,616.013z"
       style="fill:#ffffff" /></g><g
     id="g3231" /><g
     id="g3233" /><g
     id="g3235" /><g
     id="g3237" /><g
     id="g3239" /><g
     id="g3241" /><g
     id="g3243" /><g
     id="g3245" /><g
     id="g3247" /><g
     id="g3249" /><g
     id="g3251" /><g
     id="g3253" /><g
     id="g3255" /><g
     id="g3257" /><g
     id="g3259" /></svg>