<?xml version="1.0" encoding="UTF-8" standalone="no"?>
<!-- Generator: Adobe Illustrator 16.0.0, SVG Export Plug-In . SVG Version: 6.00 Build 0)  -->

<svg
   xmlns:dc="http://purl.org/dc/elements/1.1/"
   xmlns:cc="http://creativecommons.org/ns#"
   xmlns:rdf="http://www.w3.org/1999/02/22-rdf-syntax-ns#"
   xmlns:svg="http://www.w3.org/2000/svg"
   xmlns="http://www.w3.org/2000/svg"
   xmlns:sodipodi="http://sodipodi.sourceforge.net/DTD/sodipodi-0.dtd"
   xmlns:inkscape="http://www.inkscape.org/namespaces/inkscape"
   version="1.1"
   id="Capa_1"
   x="0px"
   y="0px"
   width="347.708px"
   height="347.708px"
   viewBox="0 0 347.708 347.708"
   style="enable-background:new 0 0 347.708 347.708;"
   xml:space="preserve"
   inkscape:version="0.48.5 r10040"
   sodipodi:docname="users.svg"><metadata
     id="metadata3142"><rdf:RDF><cc:Work
         rdf:about=""><dc:format>image/svg+xml</dc:format><dc:type
           rdf:resource="http://purl.org/dc/dcmitype/StillImage" /></cc:Work></rdf:RDF></metadata><defs
     id="defs3140" /><sodipodi:namedview
     pagecolor="#ffffff"
     bordercolor="#666666"
     borderopacity="1"
     objecttolerance="10"
     gridtolerance="10"
     guidetolerance="10"
     inkscape:pageopacity="0"
     inkscape:pageshadow="2"
     inkscape:window-width="640"
     inkscape:window-height="480"
     id="namedview3138"
     showgrid="false"
     inkscape:zoom="0.96057609"
     inkscape:cx="173.854"
     inkscape:cy="173.854"
     inkscape:window-x="406"
     inkscape:window-y="100"
     inkscape:window-maximized="0"
     inkscape:current-layer="Capa_1" /><g
     id="g3102"
     style="fill:#ffffff"><g
       id="g3104"
       style="fill:#ffffff"><path
         d="m 90.258,170.26 1.261,-1.18 1.267,1.18 c 11.082,10.434 23.368,16.187 34.54,16.187 11.736,0 23.857,-5.104 35.053,-14.748 l 0.937,-0.793 2.459,1.198 c 2.084,1.9 5.822,4.627 7.509,5.449 l 2.306,1.123 -0.252,0.252 0.882,0.528 c 2.117,1.249 4.375,2.463 6.951,3.754 2.594,1.146 4.828,2.018 7.206,2.798 0.456,0.162 11.511,3.729 24.121,9.577 l 2.252,0.685 c 11.974,4.563 17.041,10.995 17.222,11.218 18.591,27.586 21.719,87.838 22.02,94.575 -0.138,9.415 -2.811,11.865 -3.524,12.327 -41.662,18.651 -104.61,23.497 -116.791,24.266 l -0.333,0.019 -0.354,-0.091 c -0.408,-0.132 -0.832,-0.191 -1.348,-0.191 h -0.006 l -0.429,0.018 c -3.327,0.234 -6.089,0.343 -8.659,0.343 h -2.018 c -7.587,-0.457 -75.459,-4.9 -118.895,-24.224 -0.88,-0.372 -3.456,-3.339 -3.633,-11.979 0.006,-0.643 2.243,-65.687 21.75,-94.666 0.952,-1.2 6.266,-7.374 16.864,-11.433 9.323,-2.858 32.375,-10.509 44.985,-19.636 0.531,-0.324 1.06,-0.864 1.618,-1.429 0.914,-1.007 2.832,-3.068 5.039,-5.127 z m 129.824,16.27 -1.723,-0.498 c -2.822,-1.31 -5.801,-2.606 -8.875,-3.861 4.335,-2.03 7.89,-4.023 10.532,-5.945 0.433,-0.246 0.853,-0.678 1.249,-1.093 0.961,-1.023 2.233,-2.402 3.734,-3.804 l 0.805,-0.739 0.781,0.756 c 8.299,7.791 17.449,12.066 25.796,12.066 8.779,0 17.835,-3.801 26.169,-10.994 l 0.601,-0.493 1.676,0.811 c 1.537,1.42 4.329,3.44 5.578,4.064 l 1.441,0.697 -0.168,0.18 0.912,0.529 c 1.586,0.942 3.279,1.849 5.177,2.785 1.945,0.865 3.614,1.525 5.368,2.102 0.342,0.115 8.503,2.738 17.918,7.098 l 1.663,0.518 c 8.581,3.271 12.311,7.781 12.677,8.25 13.871,20.572 16.104,65.141 16.314,70.1 -0.102,6.888 -2.012,8.659 -2.491,8.966 -26.098,11.679 -63.555,16.062 -79.317,17.456 -1.424,-20.453 -6.468,-68.635 -23.329,-93.699 l -0.715,-0.858 c -3.416,-4.234 -10.898,-10.227 -21.773,-14.394 z m -9.764,-74.457 0.295,-0.351 c 1.32,-0.964 1.969,-2.459 1.717,-4.002 -3.135,-18.828 -1.104,-26.724 -0.396,-28.703 5.465,-16.768 22.662,-24.583 26.025,-25.967 0.685,-0.259 1.993,-0.652 3.387,-0.886 l 0.42,-0.105 2.594,-0.135 0.024,0.18 0.78,-0.069 c 0.589,-0.048 1.153,-0.135 1.544,-0.222 l 0.87,-0.195 c 0.553,0.018 7.344,0.892 17.186,3.903 l 6.93,2.387 c 12.599,3.72 18.435,10.668 19.516,12.076 10.118,11.493 7.41,28.772 4.876,38.062 -0.276,1.15 -0.108,2.318 0.553,3.272 l 0.559,0.721 c 0.714,0.952 1.356,4.744 -0.835,12.928 -0.408,2.48 -1.333,4.471 -2.654,5.795 -0.54,0.558 -0.895,1.285 -1.021,2.125 -3.423,20.059 -21.39,42.487 -40.305,42.487 -16.08,0 -34.407,-20.639 -37.698,-42.487 -0.132,-0.834 -0.486,-1.561 -1.08,-2.225 -1.333,-1.39 -2.204,-3.419 -2.738,-6.482 -1.6,-5.675 -1.768,-10.263 -0.549,-12.107 z M 70.479,90.453 70.914,89.949 c 1.693,-1.222 2.51,-3.15 2.204,-5.122 -4.246,-25.512 -1.478,-36.125 -0.517,-38.788 7.377,-22.665 30.64,-33.252 35.212,-35.134 0.955,-0.37 2.732,-0.904 4.606,-1.204 l 0.504,-0.117 3.837,-0.216 0.012,0.246 0.826,-0.087 c 0.769,-0.072 1.513,-0.183 2.393,-0.363 l 0.871,-0.207 c 0.714,0.006 9.691,1.138 23.238,5.281 l 9.323,3.204 c 17.023,5.035 24.956,14.462 26.409,16.336 13.691,15.546 10.04,38.935 6.642,51.497 -0.391,1.447 -0.156,2.96 0.66,4.188 l 0.757,0.973 c 1.249,1.672 1.718,7.269 -1.068,17.627 -0.564,3.384 -1.82,6.125 -3.663,7.944 -0.667,0.721 -1.108,1.66 -1.297,2.714 -4.633,27.121 -28.943,57.457 -54.542,57.457 -21.761,0 -46.573,-27.913 -51.05,-57.438 -0.147,-1.051 -0.583,-2.018 -1.357,-2.847 -1.858,-1.928 -3.05,-4.705 -3.777,-8.83 -2.154,-7.768 -2.367,-14.016 -0.658,-16.61 z"
         id="path3106"
         inkscape:connector-curvature="0"
         style="fill:#ffffff" /></g></g><g
     id="g3108" /><g
     id="g3110" /><g
     id="g3112" /><g
     id="g3114" /><g
     id="g3116" /><g
     id="g3118" /><g
     id="g3120" /><g
     id="g3122" /><g
     id="g3124" /><g
     id="g3126" /><g
     id="g3128" /><g
     id="g3130" /><g
     id="g3132" /><g
     id="g3134" /><g
     id="g3136" /></svg>